# xmcd CD database file
#
# Track frame offsets:
#	150
#	20347
#	36349
#	52715
#	68235
#	87604
#	106264
#	120352
#	135690
#	156157
#	173583
#
# Disc length: 2547 seconds
#
# Revision: 0
# Processed by: cddbd v1.5.1PL0 Copyright (c) Steve Scherf et al.
# Submitted via: CDex 1.51
#
DISCID=8609f10b
DTITLE=Seth Walker and the Differentials - On The Outside
DYEAR=2004
DGENRE=Blues
TTITLE0=Never Is Not Enough
TTITLE1=Let It Roll
TTITLE2=Need You To Run
TTITLE3=Lay Down
TTITLE4=One More Thing
TTITLE5=On The Outside
TTITLE6=Just Passing By
TTITLE7=Fingers To The Bone
TTITLE8=Is This Real?
TTITLE9=Stay
TTITLE10=Landon Davies
EXTD=YEAR: 2004
EXTT0=
EXTT1=
EXTT2=
EXTT3=
EXTT4=
EXTT5=
EXTT6=
EXTT7=
EXTT8=
EXTT9=
EXTT10=
PLAYORDER=
